<svg width="1146" height="855" viewBox="0 0 1146 855" fill="none" xmlns="http://www.w3.org/2000/svg">
<path d="M756.886 195.68H764.198V300.451H756.886V195.68Z" fill="#535461"/>
<path d="M756.886 336.433H764.198V395.698H756.886V336.433Z" fill="#535461"/>
<path d="M479.135 93.0245H709.776C736.948 93.0245 758.976 115.341 758.976 142.87V767.055C758.976 794.584 736.948 816.901 709.776 816.901H479.135C451.963 816.901 429.935 794.584 429.935 767.055V142.87C429.935 115.341 451.963 93.0245 479.135 93.0245Z" fill="#535461"/>
<path d="M479.135 126.89H709.776C736.948 126.89 758.976 149.207 758.976 176.736V736.365C758.976 763.894 736.948 786.211 709.776 786.211H479.135C451.963 786.211 429.935 763.894 429.935 736.365V176.736C429.935 149.207 451.963 126.89 479.135 126.89Z" fill="#6C63FF"/>
<path d="M570.43 108.899H617.436C619.455 108.899 621.092 110.557 621.092 112.603C621.092 114.649 619.455 116.307 617.436 116.307H570.43C568.411 116.307 566.774 114.649 566.774 112.603C566.774 110.557 568.411 108.899 570.43 108.899Z" fill="#EAEAF3"/>
<path d="M547.972 118.424C545.088 118.424 542.749 116.055 542.749 113.132C542.749 110.21 545.088 107.841 547.972 107.841C550.857 107.841 553.195 110.21 553.195 113.132C553.195 116.055 550.857 118.424 547.972 118.424Z" fill="#EAEAF3"/>
<path d="M679.797 419.192V496.448C679.771 498.871 680.22 501.274 681.119 503.519C682.017 505.764 683.348 507.805 685.032 509.525C686.717 511.244 688.722 512.607 690.931 513.534C693.14 514.462 695.508 514.935 697.9 514.926C707.969 514.926 717.746 506.661 717.746 496.448V419.192C717.746 409.117 708.001 400.852 697.9 400.852C693.104 400.872 688.511 402.81 685.12 406.245C681.73 409.681 679.816 414.334 679.797 419.192V419.192ZM672.684 523.9C672.689 526.494 672.189 529.063 671.212 531.46C670.235 533.857 668.8 536.035 666.99 537.869C665.18 539.703 663.03 541.157 660.664 542.147C658.298 543.137 655.762 543.643 653.202 543.638H640.103L639.905 584.393C639.905 608.998 603.564 608.808 603.564 584.393V543.648H579.079V584.403C579.079 608.882 542.519 608.945 542.519 584.403V543.648H529.222C526.672 543.64 524.148 543.123 521.796 542.126C519.443 541.13 517.307 539.674 515.509 537.841C513.712 536.008 512.288 533.835 511.32 531.445C510.352 529.055 509.858 526.495 509.866 523.911V404.217H672.684V523.9ZM509.427 397.783H673.425C673.425 369.209 656.576 344.423 631.559 331.491L644.094 307.944C645.932 304.674 641.263 302.652 639.686 305.415L626.91 329.163C615.67 324.181 603.533 321.609 591.264 321.609C578.995 321.609 566.859 324.181 555.618 329.163L542.916 305.489C541.266 302.621 536.649 304.758 538.508 308.018L551.043 331.491C526.276 344.423 509.427 369.241 509.427 397.783ZM621.802 360.742C621.802 358.884 622.531 357.102 623.828 355.789C625.125 354.475 626.884 353.737 628.718 353.737C630.504 353.807 632.193 354.575 633.433 355.88C634.672 357.186 635.364 358.926 635.364 360.737C635.364 362.548 634.672 364.289 633.433 365.594C632.193 366.899 630.504 367.667 628.718 367.738C626.889 367.738 625.135 367.004 623.839 365.697C622.543 364.39 621.811 362.616 621.802 360.764V360.742ZM547.147 360.742C547.168 359.378 547.587 358.051 548.352 356.929C549.117 355.806 550.193 354.938 551.445 354.435C552.697 353.932 554.067 353.816 555.384 354.102C556.701 354.388 557.904 355.063 558.842 356.041C559.78 357.02 560.411 358.258 560.655 359.6C560.898 360.942 560.744 362.326 560.211 363.579C559.679 364.832 558.791 365.897 557.661 366.639C556.531 367.381 555.21 367.767 553.863 367.748C552.064 367.707 550.353 366.952 549.097 365.646C547.841 364.34 547.141 362.587 547.147 360.764V360.742ZM484.744 400.831C487.123 400.824 489.48 401.293 491.68 402.213C493.879 403.132 495.878 404.483 497.56 406.187C499.242 407.891 500.575 409.916 501.483 412.144C502.39 414.373 502.853 416.761 502.847 419.171V496.427C502.856 498.845 502.395 501.241 501.491 503.478C500.586 505.715 499.255 507.75 497.574 509.466C495.893 511.182 493.895 512.545 491.693 513.479C489.492 514.412 487.131 514.897 484.744 514.905C474.601 514.905 464.897 506.64 464.897 496.427V419.171C464.929 408.927 474.674 400.852 484.744 400.852V400.831Z" fill="white"/>
</svg>
