<svg width="730" height="696" viewBox="0 0 730 696" fill="none" xmlns="http://www.w3.org/2000/svg">
<g clip-path="url(#clip0)">
<path d="M618.97 687.2H513.53V258.73H710.42L618.97 687.2Z" fill="url(#paint0_linear)"/>
<path d="M613.72 687.2H510.37V258.73H703.35L613.72 687.2Z" fill="#F5F5F5"/>
<path d="M422.965 -0.0380323L-0.00479126 118.217L45.4591 280.831L468.429 162.576L422.965 -0.0380323Z" fill="url(#paint1_linear)"/>
<path d="M420.937 3.06121L5.03629 119.339L49.0435 276.743L464.945 160.465L420.937 3.06121Z" fill="#F4F4F4"/>
<path d="M238.169 113.679L133.531 142.933L135.764 150.917L240.401 121.662L238.169 113.679Z" fill="#F5F5F5"/>
<path d="M247.094 145.598L142.457 174.853L144.689 182.836L249.326 153.582L247.094 145.598Z" fill="white"/>
<path d="M306.14 111.877L137.988 158.889L140.22 166.873L308.372 119.861L306.14 111.877Z" fill="white"/>
<path d="M99.5364 194.032C109.823 191.156 115.831 180.485 112.955 170.199C110.079 159.912 99.4083 153.904 89.1216 156.78C78.8349 159.656 72.8273 170.327 75.7033 180.614C78.5792 190.9 89.2497 196.908 99.5364 194.032Z" fill="white"/>
<path d="M538.646 36.234L125.114 190.189L184.836 350.603L598.367 196.648L538.646 36.234Z" fill="url(#paint2_linear)"/>
<path d="M535.536 42.1982L130.823 192.87L187.847 346.04L592.56 195.368L535.536 42.1982Z" fill="#F7F7F7"/>
<path d="M362.663 167.717L260.841 205.625L263.733 213.394L365.556 175.486L362.663 167.717Z" fill="#F5F5F5"/>
<path d="M374.233 198.779L272.411 236.686L275.303 244.455L377.125 206.548L374.233 198.779Z" fill="white"/>
<path d="M432.481 160.331L268.357 221.441L271.258 229.234L435.382 168.124L432.481 160.331Z" fill="white"/>
<path d="M231.24 259.397C241.25 255.671 246.343 244.535 242.617 234.525C238.89 224.515 227.754 219.421 217.744 223.148C207.734 226.875 202.641 238.01 206.367 248.02C210.094 258.03 221.23 263.124 231.24 259.397Z" fill="white"/>
<path d="M296.148 145.152L265.955 314.654L699.274 391.84L729.467 222.338L296.148 145.152Z" fill="url(#paint3_linear)"/>
<path d="M723.38 224.902L298.222 149.169L269.56 310.077L694.718 385.809L723.38 224.902Z" fill="#FAFAFA"/>
<path d="M403.749 226.186L402.296 234.348L509.262 253.401L510.716 245.24L403.749 226.186Z" fill="#F5F5F5"/>
<path d="M397.943 258.83L396.489 266.991L503.455 286.045L504.909 277.884L397.943 258.83Z" fill="white"/>
<path d="M400.84 242.508L399.386 250.669L571.28 281.288L572.734 273.127L400.84 242.508Z" fill="white"/>
<path d="M373.374 241.818C375.247 231.302 368.241 221.259 357.725 219.386C347.21 217.513 337.167 224.519 335.293 235.034C333.42 245.55 340.426 255.593 350.942 257.466C361.458 259.339 371.501 252.333 373.374 241.818Z" fill="white"/>
<path d="M171.78 253.69L100.61 203.86H2.07001V253.69V278.1V695.09H617.93V253.69H171.78Z" fill="url(#paint4_linear)"/>
<path d="M174.44 258.73L104.36 210.36H7.34V258.73V282.43V687.2H613.72V258.73H174.44Z" fill="white"/>
<path d="M476.28 586.08C476.288 588.001 475.533 589.847 474.181 591.212C472.829 592.577 470.991 593.349 469.07 593.36H152C150.079 593.349 148.241 592.577 146.889 591.212C145.537 589.847 144.782 588.001 144.79 586.08V369.48C144.782 367.559 145.537 365.713 146.889 364.348C148.241 362.983 150.079 362.211 152 362.2H469.07C470.991 362.211 472.829 362.983 474.181 364.348C475.533 365.713 476.288 367.559 476.28 369.48" fill="url(#paint5_linear)"/>
<path d="M472.55 582.55C472.55 584.407 471.813 586.187 470.5 587.5C469.187 588.813 467.407 589.55 465.55 589.55H155.79C153.933 589.55 152.153 588.813 150.84 587.5C149.528 586.187 148.79 584.407 148.79 582.55V373.17C148.79 371.313 149.528 369.533 150.84 368.22C152.153 366.907 153.933 366.17 155.79 366.17H465.51C467.367 366.17 469.147 366.907 470.46 368.22C471.772 369.533 472.51 371.313 472.51 373.17" fill="white"/>
<path d="M451.64 375.85H169.97C165.082 375.85 161.12 379.812 161.12 384.7V571.76C161.12 576.648 165.082 580.61 169.97 580.61H451.64C456.528 580.61 460.49 576.648 460.49 571.76V384.7C460.49 379.812 456.528 375.85 451.64 375.85Z" fill="url(#paint6_linear)"/>
<path d="M447.64 380.84H173.65C168.762 380.84 164.8 384.802 164.8 389.69V566C164.8 570.888 168.762 574.85 173.65 574.85H447.64C452.528 574.85 456.49 570.888 456.49 566V389.69C456.49 384.802 452.528 380.84 447.64 380.84Z" fill="white"/>
<path d="M148.58 573.08L230.02 479.77C231.424 478.16 233.133 476.844 235.048 475.896C236.963 474.949 239.046 474.389 241.178 474.25C243.31 474.111 245.448 474.394 247.47 475.084C249.492 475.774 251.358 476.857 252.96 478.27L275.74 498.39C278.652 500.96 282.39 502.398 286.274 502.444C290.157 502.49 293.928 501.14 296.9 498.64L366.6 440.06C369.807 437.357 373.936 436.003 378.12 436.281C382.305 436.558 386.219 438.447 389.04 441.55L474.57 535.69C476.95 538.309 478.407 541.635 478.72 545.16L482.02 582.29C482.22 584.532 481.951 586.79 481.23 588.922C480.509 591.054 479.352 593.012 477.833 594.673C476.314 596.333 474.466 597.659 472.406 598.566C470.346 599.473 468.12 599.941 465.87 599.94H160.8C156.586 599.939 152.538 598.298 149.514 595.363C146.49 592.429 144.727 588.432 144.6 584.22V584.22C144.476 580.138 145.897 576.159 148.58 573.08V573.08Z" fill="#6C63FF"/>
<path d="M199.93 430.01C209.904 430.01 217.99 421.924 217.99 411.95C217.99 401.976 209.904 393.89 199.93 393.89C189.956 393.89 181.87 401.976 181.87 411.95C181.87 421.924 189.956 430.01 199.93 430.01Z" fill="#FF5252"/>
</g>
<defs>
<linearGradient id="paint0_linear" x1="611.98" y1="687.2" x2="611.98" y2="258.73" gradientUnits="userSpaceOnUse">
<stop stop-color="#808080" stop-opacity="0.25"/>
<stop offset="0.54" stop-color="#808080" stop-opacity="0.12"/>
<stop offset="1" stop-color="#808080" stop-opacity="0.1"/>
</linearGradient>
<linearGradient id="paint1_linear" x1="190946" y1="35209.8" x2="186830" y2="-12941.8" gradientUnits="userSpaceOnUse">
<stop stop-color="#808080" stop-opacity="0.25"/>
<stop offset="0.54" stop-color="#808080" stop-opacity="0.12"/>
<stop offset="1" stop-color="#808080" stop-opacity="0.1"/>
</linearGradient>
<linearGradient id="paint2_linear" x1="263578" y1="77653" x2="263578" y2="23838.8" gradientUnits="userSpaceOnUse">
<stop stop-color="#808080" stop-opacity="0.25"/>
<stop offset="0.54" stop-color="#808080" stop-opacity="0.12"/>
<stop offset="1" stop-color="#808080" stop-opacity="0.1"/>
</linearGradient>
<linearGradient id="paint3_linear" x1="147724" y1="214565" x2="157543" y2="105235" gradientUnits="userSpaceOnUse">
<stop stop-color="#808080" stop-opacity="0.25"/>
<stop offset="0.54" stop-color="#808080" stop-opacity="0.12"/>
<stop offset="1" stop-color="#808080" stop-opacity="0.1"/>
</linearGradient>
<linearGradient id="paint4_linear" x1="190919" y1="341653" x2="190919" y2="100346" gradientUnits="userSpaceOnUse">
<stop stop-color="#808080" stop-opacity="0.25"/>
<stop offset="0.54" stop-color="#808080" stop-opacity="0.12"/>
<stop offset="1" stop-color="#808080" stop-opacity="0.1"/>
</linearGradient>
<linearGradient id="paint5_linear" x1="310.53" y1="593.36" x2="310.53" y2="362.19" gradientUnits="userSpaceOnUse">
<stop stop-color="#B3B3B3" stop-opacity="0.25"/>
<stop offset="0.54" stop-color="#B3B3B3" stop-opacity="0.1"/>
<stop offset="1" stop-color="#B3B3B3" stop-opacity="0.05"/>
</linearGradient>
<linearGradient id="paint6_linear" x1="93205.3" y1="119264" x2="93205.3" y2="77334.9" gradientUnits="userSpaceOnUse">
<stop stop-color="#B3B3B3" stop-opacity="0.25"/>
<stop offset="0.54" stop-color="#B3B3B3" stop-opacity="0.1"/>
<stop offset="1" stop-color="#B3B3B3" stop-opacity="0.05"/>
</linearGradient>
<clipPath id="clip0">
<rect width="729.47" height="695.09" fill="white"/>
</clipPath>
</defs>
</svg>
