<svg width="936" height="535" viewBox="0 0 936 535" fill="none" xmlns="http://www.w3.org/2000/svg">
<path d="M676.831 518.194H52.8039C47.2546 518.194 41.9324 516.019 38.0084 512.149C34.0844 508.278 31.88 503.028 31.88 497.554C258.09 471.621 480.048 471.621 697.755 497.554C697.755 500.265 697.214 502.949 696.163 505.453C695.111 507.957 693.569 510.232 691.626 512.149C689.684 514.066 687.377 515.586 684.838 516.623C682.3 517.661 679.579 518.194 676.831 518.194Z" fill="#2F2E41"/>
<path d="M697.755 498.768L31.88 497.554L109.053 369.463L109.422 368.857V86.5585C109.421 83.132 110.106 79.7389 111.434 76.5733C112.764 73.4076 114.713 70.5311 117.168 68.1082C119.624 65.6854 122.541 63.7635 125.75 62.4523C128.959 61.1412 132.398 60.4665 135.872 60.4669H590.07C593.544 60.4665 596.984 61.1412 600.192 62.4523C603.402 63.7635 606.318 65.6854 608.774 68.1082C611.231 70.5311 613.178 73.4076 614.508 76.5733C615.838 79.7389 616.521 83.132 616.521 86.5585V370.799L697.755 498.768Z" fill="#3F3D56"/>
<path d="M135.27 78.6789C132.985 78.6813 130.795 79.5776 129.18 81.1709C127.565 82.7642 126.656 84.9245 126.653 87.1777V344.573C126.656 346.827 127.565 348.987 129.18 350.58C130.795 352.173 132.985 353.07 135.27 353.073H594.367C596.651 353.07 598.84 352.173 600.455 350.58C602.071 348.987 602.979 346.827 602.982 344.573V87.1777C602.98 84.9245 602.071 82.7643 600.456 81.1709C598.84 79.5777 596.651 78.6815 594.367 78.6789H135.27Z" fill="white"/>
<path d="M137.193 387.068C136.486 387.069 135.797 387.27 135.202 387.645C134.608 388.021 134.134 388.557 133.838 389.188L110.059 440.182C109.8 440.736 109.687 441.347 109.73 441.956C109.772 442.566 109.97 443.155 110.304 443.669C110.638 444.184 111.097 444.607 111.641 444.9C112.184 445.193 112.793 445.346 113.413 445.346H613.479C614.108 445.346 614.727 445.188 615.277 444.886C615.827 444.583 616.289 444.147 616.619 443.619C616.951 443.091 617.139 442.488 617.167 441.868C617.196 441.248 617.062 440.631 616.78 440.075L590.933 389.082C590.628 388.476 590.158 387.966 589.574 387.61C588.99 387.254 588.317 387.066 587.632 387.068H137.193Z" fill="#2F2E41"/>
<path d="M362.971 74.4294C366.031 74.4294 368.511 71.9832 368.511 68.9658C368.511 65.9484 366.031 63.5021 362.971 63.5021C359.913 63.5021 357.433 65.9484 357.433 68.9658C357.433 71.9832 359.913 74.4294 362.971 74.4294Z" fill="white"/>
<path d="M313.819 455.06C313.007 455.061 312.218 455.325 311.574 455.812C310.93 456.299 310.466 456.982 310.253 457.755L304.289 479.609C304.142 480.148 304.122 480.715 304.232 481.264C304.342 481.812 304.578 482.328 304.923 482.772C305.268 483.216 305.711 483.575 306.22 483.822C306.728 484.07 307.287 484.199 307.854 484.199H421.291C421.88 484.199 422.46 484.06 422.983 483.794C423.506 483.528 423.958 483.142 424.299 482.669C424.64 482.196 424.862 481.649 424.945 481.074C425.029 480.499 424.972 479.913 424.779 479.364L417.11 457.51C416.859 456.795 416.389 456.175 415.763 455.735C415.138 455.296 414.389 455.06 413.621 455.06H313.819Z" fill="#2F2E41"/>
<path d="M616.521 364.607V369.463H109.053L109.434 368.857V364.607H616.521Z" fill="#2F2E41"/>
<path d="M191.668 132.122C189.871 132.149 188.159 132.878 186.907 134.15C185.654 135.421 184.964 137.129 184.987 138.903V292.575C184.964 294.347 185.654 296.056 186.907 297.327C188.159 298.598 189.871 299.327 191.668 299.354H537.967C539.764 299.327 541.476 298.598 542.729 297.327C543.981 296.056 544.672 294.347 544.648 292.575V138.903C544.672 137.129 543.981 135.421 542.729 134.15C541.476 132.878 539.764 132.149 537.967 132.122H191.668Z" fill="#E6E6E6"/>
<path d="M390.609 299.629H516.67C517.472 299.629 518.258 299.394 518.925 298.954C519.592 298.515 520.112 297.889 520.419 297.158C520.727 296.427 520.806 295.622 520.65 294.845C520.494 294.069 520.108 293.356 519.54 292.796L438.859 213.209C438.097 212.46 437.066 212.039 435.99 212.039C434.914 212.039 433.882 212.46 433.12 213.209L413.057 233C412.266 233.78 411.328 234.399 410.296 234.821C409.263 235.243 408.156 235.459 407.039 235.459C405.921 235.459 404.815 235.243 403.781 234.821C402.749 234.399 401.811 233.78 401.02 233L338.179 171.011C337.418 170.263 336.386 169.841 335.31 169.841C334.234 169.841 333.202 170.263 332.44 171.011L209.538 292.246C208.971 292.807 208.585 293.52 208.428 294.296C208.272 295.073 208.352 295.878 208.659 296.609C208.966 297.34 209.487 297.965 210.154 298.405C210.821 298.845 211.606 299.08 212.409 299.08H390.77L390.609 299.629Z" fill="#6C63FF"/>
<path d="M240.662 183.748C249.271 183.748 256.251 176.863 256.251 168.37C256.251 159.877 249.271 152.992 240.662 152.992C232.053 152.992 225.073 159.877 225.073 168.37C225.073 176.863 232.053 183.748 240.662 183.748Z" fill="#6C63FF"/>
<path d="M199.979 187.752C199.684 187.752 199.401 187.635 199.192 187.429C198.983 187.224 198.865 186.945 198.865 186.652V113.06C198.865 112.769 198.983 112.489 199.192 112.283C199.401 112.077 199.684 111.962 199.979 111.962H285.718C285.865 111.961 286.01 111.989 286.146 112.044C286.281 112.099 286.404 112.18 286.508 112.282C286.612 112.385 286.695 112.505 286.751 112.639C286.806 112.772 286.836 112.915 286.836 113.06C286.836 113.204 286.806 113.348 286.751 113.481C286.695 113.614 286.612 113.736 286.508 113.837C286.404 113.94 286.281 114.021 286.146 114.076C286.01 114.131 285.865 114.159 285.718 114.158H201.092V186.652C201.092 186.945 200.975 187.224 200.767 187.43C200.558 187.635 200.274 187.752 199.979 187.752Z" fill="#3F3D56"/>
<path d="M529.576 188.85C529.429 188.85 529.285 188.822 529.149 188.767C529.015 188.71 528.892 188.63 528.789 188.528C528.685 188.426 528.603 188.305 528.547 188.171C528.491 188.038 528.463 187.895 528.463 187.752V115.257H443.836C443.54 115.257 443.257 115.14 443.048 114.935C442.84 114.729 442.723 114.449 442.723 114.158C442.723 113.867 442.84 113.587 443.048 113.381C443.257 113.175 443.54 113.06 443.836 113.06H529.576C529.722 113.06 529.867 113.088 530.002 113.144C530.137 113.199 530.26 113.28 530.363 113.381C530.467 113.484 530.549 113.604 530.605 113.738C530.661 113.871 530.69 114.014 530.689 114.158V187.752C530.69 187.895 530.661 188.038 530.605 188.171C530.549 188.305 530.467 188.426 530.363 188.528C530.26 188.63 530.137 188.71 530.002 188.767C529.867 188.822 529.722 188.85 529.576 188.85Z" fill="#3F3D56"/>
<path d="M285.718 318.461H199.979C199.833 318.461 199.687 318.433 199.553 318.378C199.417 318.323 199.295 318.242 199.191 318.139C199.088 318.038 199.006 317.916 198.95 317.784C198.895 317.65 198.865 317.507 198.865 317.363V243.77C198.865 243.626 198.893 243.482 198.949 243.348C199.005 243.215 199.087 243.093 199.19 242.991C199.294 242.889 199.416 242.807 199.552 242.752C199.687 242.697 199.833 242.668 199.979 242.668C200.126 242.668 200.27 242.697 200.406 242.752C200.541 242.807 200.664 242.889 200.768 242.991C200.87 243.093 200.952 243.215 201.008 243.348C201.064 243.482 201.092 243.626 201.092 243.77V316.265H285.718C285.865 316.264 286.01 316.292 286.146 316.347C286.281 316.402 286.404 316.483 286.508 316.585C286.612 316.687 286.695 316.808 286.751 316.942C286.806 317.075 286.836 317.218 286.836 317.363C286.836 317.507 286.806 317.651 286.751 317.784C286.695 317.917 286.612 318.039 286.508 318.141C286.404 318.243 286.281 318.324 286.146 318.379C286.01 318.434 285.865 318.462 285.718 318.461Z" fill="#3F3D56"/>
<path d="M529.576 319.56H443.836C443.54 319.56 443.257 319.444 443.048 319.238C442.84 319.032 442.723 318.752 442.723 318.461C442.723 318.17 442.84 317.89 443.048 317.684C443.257 317.478 443.54 317.363 443.836 317.363H528.463V244.868C528.463 244.577 528.58 244.298 528.789 244.092C528.997 243.886 529.281 243.77 529.576 243.77C529.871 243.77 530.154 243.886 530.363 244.092C530.572 244.298 530.689 244.577 530.689 244.868V318.461C530.69 318.605 530.661 318.749 530.605 318.882C530.549 319.015 530.467 319.136 530.363 319.239C530.26 319.34 530.138 319.421 530.002 319.476C529.867 319.531 529.722 319.56 529.576 319.56Z" fill="#3F3D56"/>
</svg>
