<svg width="888" height="711" viewBox="0 0 888 711" fill="none" xmlns="http://www.w3.org/2000/svg">
<path d="M541.5 643.807V381.807H346.5V643.807H541.5Z" fill="#2F2E41"/>
<path d="M575 373.807H313V477.807H575V373.807Z" fill="#3F3D56"/>
<path d="M575 489.807H313V593.807H575V489.807Z" fill="#3F3D56"/>
<path d="M575 605.807H313V709.807H575V605.807Z" fill="#3F3D56"/>
<path d="M575 417.904H313V433.904H575V417.904Z" fill="#6C63FF"/>
<path d="M575 533.904H313V549.904H575V533.904Z" fill="#6C63FF"/>
<path d="M575 649.904H313V665.904H575V649.904Z" fill="#6C63FF"/>
<path d="M524 394.807C527.314 394.807 530 392.121 530 388.807C530 385.494 527.314 382.807 524 382.807C520.686 382.807 518 385.494 518 388.807C518 392.121 520.686 394.807 524 394.807Z" fill="#6C63FF"/>
<path d="M545 394.807C548.314 394.807 551 392.121 551 388.807C551 385.494 548.314 382.807 545 382.807C541.686 382.807 539 385.494 539 388.807C539 392.121 541.686 394.807 545 394.807Z" fill="#6C63FF"/>
<path d="M566 394.807C569.314 394.807 572 392.121 572 388.807C572 385.494 569.314 382.807 566 382.807C562.686 382.807 560 385.494 560 388.807C560 392.121 562.686 394.807 566 394.807Z" fill="#6C63FF"/>
<path d="M524 508.807C527.314 508.807 530 506.121 530 502.807C530 499.494 527.314 496.807 524 496.807C520.686 496.807 518 499.494 518 502.807C518 506.121 520.686 508.807 524 508.807Z" fill="#6C63FF"/>
<path d="M545 508.807C548.314 508.807 551 506.121 551 502.807C551 499.494 548.314 496.807 545 496.807C541.686 496.807 539 499.494 539 502.807C539 506.121 541.686 508.807 545 508.807Z" fill="#6C63FF"/>
<path d="M566 508.807C569.314 508.807 572 506.121 572 502.807C572 499.494 569.314 496.807 566 496.807C562.686 496.807 560 499.494 560 502.807C560 506.121 562.686 508.807 566 508.807Z" fill="#6C63FF"/>
<path d="M524 622.807C527.314 622.807 530 620.121 530 616.807C530 613.494 527.314 610.807 524 610.807C520.686 610.807 518 613.494 518 616.807C518 620.121 520.686 622.807 524 622.807Z" fill="#6C63FF"/>
<path d="M545 622.807C548.314 622.807 551 620.121 551 616.807C551 613.494 548.314 610.807 545 610.807C541.686 610.807 539 613.494 539 616.807C539 620.121 541.686 622.807 545 622.807Z" fill="#6C63FF"/>
<path d="M566 622.807C569.314 622.807 572 620.121 572 616.807C572 613.494 569.314 610.807 566 610.807C562.686 610.807 560 613.494 560 616.807C560 620.121 562.686 622.807 566 622.807Z" fill="#6C63FF"/>
</svg>
